#!OML:ASF C:\Vicon Data\Big\jianyuan-13\jianyuan\Session 1\Capture.male.ASF
:FULLY-SPECIFIED
:DEGREES
139
root -7.608348 17.398031 -13.668464 5.797074 1.954571 -0.579916
lowerback -14.596866 2.096113 0.213492 
upperback 0.956060 2.837169 -0.429400 
thorax 9.273953 1.403531 0.054435 
lowerneck -6.062128 -1.715742 3.272137 
upperneck 10.898527 -2.511612 -3.186562 
head 4.435346 -1.361214 -1.759917 
rclavicle 0.000000 0.000000 
rhumerus -38.576876 -15.876646 -80.436385 
rradius 38.169224 
rwrist 24.187270 
rhand -18.544090 -19.839669 
rfingers 0.000000 
rthumb 7.745186 -49.677794 
lclavicle 0.000000 0.000000 
lhumerus -50.090703 40.247370 58.777554 
lradius 24.075191 
lwrist -65.581954 
lhand -18.987483 -0.152640 
lfingers 0.000000 
lthumb 7.317256 29.700812 
rfemur 1.675535 5.807915 26.068524 
rtibia 23.529967 
rfoot -23.207097 -3.628891 
rtoes -29.964437 
lfemur -28.505031 -2.577770 -17.166042 
ltibia 13.547013 
lfoot -1.480398 14.204396 
ltoes -20.430041 
140
root -7.586054 17.407486 -13.604942 5.732776 1.888083 -0.315231
lowerback -14.573286 2.070613 -0.093877 
upperback 0.999968 2.862314 -0.491935 
thorax 9.296655 1.401587 0.166201 
lowerneck -5.997857 -1.672915 3.707939 
upperneck 10.472573 -2.445080 -3.609831 
head 4.463767 -1.323132 -2.040636 
rclavicle 0.000000 0.000000 
rhumerus -38.478228 -15.732859 -80.532654 
rradius 38.194565 
rwrist 23.952800 
rhand -18.664688 -19.839788 
rfingers 0.000000 
rthumb 7.628782 -49.682247 
lclavicle 0.000000 0.000000 
lhumerus -50.146346 40.396696 58.710296 
lradius 23.990900 
lwrist -65.471029 
lhand -19.026380 -0.169504 
lfingers 0.000000 
lthumb 7.279687 29.685293 
rfemur 1.909757 5.833663 25.720266 
rtibia 23.691285 
rfoot -22.930139 -3.717585 
rtoes -30.378093 
lfemur -28.473318 -2.677850 -17.525661 
ltibia 14.096005 
lfoot -1.669870 13.999353 
ltoes -19.995980 
141
root -7.563722 17.413873 -13.540006 5.619607 1.876482 -0.120145
lowerback -14.493858 2.018889 -0.323802 
upperback 1.013377 2.839791 -0.560156 
thorax 9.258145 1.381740 0.214774 
lowerneck -5.912811 -1.682641 3.894195 
upperneck 10.485308 -2.443104 -3.875871 
head 4.310565 -1.332228 -2.099581 
rclavicle 0.000000 0.000000 
rhumerus -38.483823 -15.613986 -80.647965 
rradius 38.127804 
rwrist 23.959431 
rhand -18.783281 -19.762429 
rfingers 0.000000 
rthumb 7.514324 -49.608953 
lclavicle 0.000000 0.000000 
lhumerus -50.331132 40.488474 58.542271 
lradius 23.924461 
lwrist -65.269311 
lhand -19.226953 -0.031667 
lfingers 0.000000 
lthumb 7.086058 29.829698 
rfemur 2.135774 5.796746 25.431040 
rtibia 23.949109 
rfoot -22.616268 -3.669663 
rtoes -30.644100 
lfemur -28.343157 -2.614648 -17.912480 
ltibia 14.610607 
lfoot -1.878522 13.547040 
ltoes -20.509754 
142
root -7.540568 17.420720 -13.479643 5.548794 1.943479 -0.092576
lowerback -14.427616 2.012549 -0.351403 
upperback 1.047322 2.837265 -0.588046 
thorax 9.257502 1.379473 0.197992 
lowerneck -6.073796 -1.708104 3.782399 
upperneck 10.500993 -2.471522 -3.812609 
head 4.317773 -1.347039 -2.048234 
rclavicle 0.000000 0.000000 
rhumerus -38.389271 -15.670546 -80.677594 
rradius 38.061689 
rwrist 23.977976 
rhand -18.682119 -19.662376 
rfingers 0.000000 
rthumb 7.611995 -49.505366 
lclavicle 0.000000 0.000000 
lhumerus -50.551119 40.833883 58.135963 
lradius 23.884346 
lwrist -66.043452 
lhand -19.221213 -0.158795 
lfingers 0.000000 
lthumb 7.091596 29.702397 
rfemur 2.241120 5.784102 25.353866 
rtibia 24.300971 
rfoot -22.374532 -3.734337 
rtoes -30.841406 
lfemur -28.294763 -2.641099 -18.059460 
ltibia 15.116583 
lfoot -2.214886 13.177119 
ltoes -20.498547 
143
root -7.520740 17.427572 -13.423586 5.558315 2.066543 -0.069938
lowerback -14.386167 1.944946 -0.435806 
upperback 0.992532 2.764919 -0.606501 
thorax 9.170759 1.342864 0.207163 
lowerneck -5.842401 -1.704411 3.888087 
upperneck 10.139956 -2.472980 -3.791061 
head 4.308059 -1.334203 -2.125106 
rclavicle 0.000000 0.000000 
rhumerus -38.455087 -15.601650 -80.751116 
rradius 38.037961 
rwrist 24.180085 
rhand -18.765222 -19.635811 
rfingers 0.000000 
rthumb 7.531750 -49.481730 
lclavicle 0.000000 0.000000 
lhumerus -50.910050 41.107942 57.640605 
lradius 23.806947 
lwrist -66.622777 
lhand -19.230979 -0.129530 
lfingers 0.000000 
lthumb 7.082198 29.731976 
rfemur 2.221226 5.624947 25.261976 
rtibia 24.648074 
rfoot -21.923599 -3.681638 
rtoes -31.177028 
lfemur -28.400720 -2.370322 -18.293134 
ltibia 15.652994 
lfoot -2.358472 12.582047 
ltoes -20.741173 
144
root -7.495154 17.439831 -13.350550 5.381566 1.942617 0.182831
lowerback -14.383510 2.010178 -0.685091 
upperback 1.115075 2.895125 -0.628621 
thorax 9.291878 1.390830 0.354948 
lowerneck -5.969847 -1.817560 3.415563 
upperneck 10.089342 -2.601861 -3.539707 
head 4.314653 -1.401776 -1.960644 
rclavicle 0.000000 0.000000 
rhumerus -38.341867 -15.587918 -80.686761 
rradius 38.074079 
rwrist 23.869819 
rhand -18.873044 -19.746885 
rfingers 0.000000 
rthumb 7.427701 -49.596516 
lclavicle 0.000000 0.000000 
lhumerus -50.930032 41.400748 57.683432 
lradius 23.772286 
lwrist -66.707626 
lhand -19.133275 -0.197725 
lfingers 0.000000 
lthumb 7.176497 29.660582 
rfemur 2.489148 5.679998 24.870126 
rtibia 25.081395 
rfoot -21.641716 -3.530053 
rtoes -31.029716 
lfemur -28.069880 -2.542168 -18.624252 
ltibia 16.077035 
lfoot -3.025950 12.543751 
ltoes -20.947354 
145
root -7.469721 17.448452 -13.288377 5.284335 1.951667 0.355300
lowerback -14.329307 2.005812 -0.795042 
upperback 1.162738 2.918317 -0.736144 
thorax 9.313336 1.399300 0.305629 
lowerneck -5.943560 -1.828177 3.597002 
upperneck 9.898095 -2.614740 -3.656994 
head 4.237644 -1.403724 -2.028981 
rclavicle 0.000000 0.000000 
rhumerus -38.291805 -15.529527 -80.795368 
rradius 37.998019 
rwrist 23.938329 
rhand -18.783124 -19.653883 
rfingers 0.000000 
rthumb 7.514509 -49.500389 
lclavicle 0.000000 0.000000 
lhumerus -51.023855 41.653465 57.353561 
lradius 23.651392 
lwrist -67.232405 
lhand -19.080245 -0.187125 
lfingers 0.000000 
lthumb 7.227667 29.669449 
rfemur 2.545628 5.586833 24.573449 
rtibia 25.562976 
rfoot -21.211263 -3.394550 
rtoes -31.192202 
lfemur -27.900164 -2.560400 -18.937899 
ltibia 16.447895 
lfoot -3.423494 12.334754 
ltoes -21.618824 
146
root -7.447486 17.457596 -13.227839 5.274522 2.035658 0.452972
lowerback -14.383139 1.980651 -0.885832 
upperback 1.180931 2.910780 -0.818047 
thorax 9.364326 1.393414 0.269811 
lowerneck -5.904593 -1.873405 3.525226 
upperneck 9.754925 -2.671757 -3.564299 
head 4.176962 -1.427587 -1.982334 
rclavicle 0.000000 0.000000 
rhumerus -38.275777 -15.591327 -80.890570 
rradius 38.016493 
rwrist 23.977114 
rhand -18.802431 -19.733875 
rfingers 0.000000 
rthumb 7.495891 -49.581123 
lclavicle 0.000000 0.000000 
lhumerus -51.094687 41.843723 57.072361 
lradius 23.579695 
lwrist -67.710846 
lhand -19.045318 -0.180161 
lfingers 0.000000 
lthumb 7.261433 29.675208 
rfemur 2.465922 5.444143 24.382908 
rtibia 26.101356 
rfoot -20.815960 -3.380041 
rtoes -31.538245 
lfemur -27.826892 -2.559410 -19.163400 
ltibia 16.775878 
lfoot -3.765407 12.069874 
ltoes -21.962558 
147
root -7.410237 17.474988 -13.126799 5.215299 1.942653 0.601238
lowerback -14.489393 1.963150 -1.090683 
upperback 1.192513 2.928646 -0.837894 
thorax 9.428756 1.391790 0.372288 
lowerneck -5.792757 -1.866597 3.589586 
upperneck 9.644946 -2.643598 -3.796152 
head 4.114018 -1.422038 -2.066512 
rclavicle 0.000000 0.000000 
rhumerus -38.295755 -15.556845 -80.874087 
rradius 37.896518 
rwrist 24.234424 
rhand -18.703904 -19.672656 
rfingers 0.000000 
rthumb 7.590957 -49.516432 
lclavicle 0.000000 0.000000 
lhumerus -51.415678 42.206507 56.714982 
lradius 23.494603 
lwrist -68.015053 
lhand -19.187768 -0.047694 
lfingers 0.000000 
lthumb 7.123866 29.812376 
rfemur 2.415356 5.384819 24.012386 
rtibia 26.959648 
rfoot -20.098061 -3.122148 
rtoes -31.680302 
lfemur -27.608044 -2.162589 -19.608644 
ltibia 17.284126 
lfoot -4.215984 11.435786 
ltoes -22.336391 
148
root -7.366212 17.494824 -13.001917 5.033362 1.911647 0.755891
lowerback -14.540160 2.014525 -1.198340 
upperback 1.248671 3.032590 -0.973437 
thorax 9.521066 1.439498 0.313799 
lowerneck -5.679632 -1.922739 3.748888 
upperneck 9.492108 -2.725979 -3.814417 
head 4.031726 -1.455421 -2.098902 
rclavicle 0.000000 0.000000 
rhumerus -38.423403 -15.630533 -80.966951 
rradius 37.989088 
rwrist 24.210362 
rhand -18.780991 -19.691127 
rfingers 0.000000 
rthumb 7.516518 -49.537561 
lclavicle 0.000000 0.000000 
lhumerus -51.526941 42.426159 56.287571 
lradius 23.281606 
lwrist -68.965859 
lhand -19.257524 -0.200705 
lfingers 0.000000 
lthumb 7.056549 29.661651 
rfemur 2.421303 5.114463 23.595556 
rtibia 28.027272 
rfoot -19.123458 -2.798624 
rtoes -32.146374 
lfemur -27.117978 -2.446475 -19.876369 
ltibia 17.751910 
lfoot -5.066514 11.186589 
ltoes -22.318674 
